<svg width="236" height="306" viewBox="0 0 236 306" fill="none" xmlns="http://www.w3.org/2000/svg">
<path d="M90.8659 118.899L96.6658 121.799L106.332 125.666H115.999L125.666 123.732L135.332 117.932L144.999 110.199L148.865 114.066L156.599 119.866L158.532 121.799L156.599 127.599L150.799 135.332L144.999 144.999L135.332 152.732L129.532 156.599L119.866 158.532H112.132H104.399L98.5991 154.665L94.7325 150.799L92.7992 146.932L90.8659 141.132V118.899Z" fill="#EEB9B9"/>
<path d="M90.8658 127.599L90.8659 141.132L98.5991 154.665L112.132 158.532L135.332 152.732L144.999 143.065L150.799 135.332L156.599 123.732L156.599 119.866L162.399 123.732L177.865 133.399L187.532 135.332L197.198 139.199L206.865 148.865L218.465 162.399L222.331 175.932L230.065 193.332L235.865 208.798V222.331L222.331 262.931V276.464L209.757 328.664L193.332 330H191.053L167.004 330.597L112.132 332.53L96.6658 330.597L75.3993 332.53H67.6661L57.9995 315.13L54.1328 301.597L44.4663 288.064L42.5329 282.264L32.8664 276.464L25.1331 280.331H13.5332L3.86663 288.064H0V257.131L7.73326 245.531L3.86663 230.065L7.73326 222.331L13.5332 199.132V183.665L15.4665 173.998L32.8664 158.532L40.5996 146.932L57.9995 143.065L63.7994 139.199L75.3993 133.399L90.8658 127.599Z" fill="#F0F0F0"/>
<path d="M42.5332 281.903L33.4008 276.559L26.7206 280.331H13.3603L4.0081 288.583H0L7.73354 317.064L54.1331 373.13V402.13L88.9328 384.73L79.2662 355.73L57.4494 315.304L53.4413 301.943L44.0891 287.247L42.5332 281.903Z" fill="#EEB9B9"/>
<path d="M79.2661 71.5325V94.7323H75.3994L73.4661 90.8657V88.9324L79.2661 71.5325Z" fill="#EEB9B9"/>
<path d="M154.665 65.7324L152.732 69.599L150.799 90.8655L152.732 92.7988H156.599L158.532 90.8655V79.2656L160.465 67.6657L158.532 65.7324H154.665Z" fill="#FFD1D1"/>
<path d="M86.9994 54.1328L81.1995 57.9995L79.2662 65.7327V61.8661L77.3329 54.1328L73.4662 50.2662L69.5996 48.3329L73.4662 32.8664V27.0664L77.3329 21.2665L83.1328 15.4665L94.7327 5.79995L104.399 0H143.066L152.732 3.86663L158.532 11.5999L162.399 17.3998L168.199 23.1998L170.132 28.9997L172.065 32.8664L175.932 38.6663L173.999 44.4663L170.132 48.3329H162.399L158.532 65.7324H154.665L152.732 69.599L152.732 67.6661V57.9995L148.866 54.1328L141.132 50.2662V40.5996L139.199 38.6663L131.466 36.733H125.666L117.932 32.8664H110.199L104.399 34.7997L98.5993 38.6663L94.7327 40.5996L88.9328 44.4663L86.9994 48.3329V54.1328Z" fill="black"/>
<path d="M81.1995 57.9995L79.2662 65.7327L79.2663 96.666L83.1329 112.132L88.9328 117.932L96.6658 121.799L106.332 125.666H115.999L125.666 123.732L135.332 117.932L144.999 110.199L150.799 94.7327L152.732 67.6661V57.9995L148.866 54.1328L141.132 50.2662V40.5996L139.199 38.6663L137.266 38.6665L131.466 36.733H125.666L117.932 32.8664L112.133 32.8665L106.333 34.7998L98.5993 38.6663L88.9328 44.4663L86.9995 46.3997L86.9994 54.1328L81.1995 57.9995Z" fill="#FFD0D0"/>
</svg>
